<svg width="143" height="48" viewBox="0 0 143 48" fill="none" xmlns="http://www.w3.org/2000/svg">
    <g id="logo">
        <path id="Clip 2" fill-rule="evenodd" clip-rule="evenodd" d="M79.3012 1.41106V28.7965C79.3012 29.5317 79.8948 30.1443 80.6078 30.1443C81.317 30.1443 81.9124 29.5317 81.9124 28.7965V1.41106C81.9124 0.675882 81.317 0.0632324 80.6078 0.0632324C79.8948 0.0632324 79.3012 0.675882 79.3012 1.41106ZM132.267 6.98617L125.029 16.3597L117.794 6.98617C117.523 6.67028 117.134 6.49414 116.753 6.49414C116.463 6.49414 116.182 6.59369 115.955 6.80238C115.424 7.2925 115.302 8.14829 115.775 8.70159L123.312 18.5059L115.775 27.8794C115.302 28.4289 115.424 29.2866 115.955 29.7748C116.489 30.2688 117.32 30.1443 117.794 29.5929L124.972 20.587L132.145 29.5929C132.619 30.1443 133.454 30.2688 133.985 29.7748C134.518 29.2866 134.639 28.4289 134.163 27.8794L126.631 18.5059L134.163 8.70159C134.639 8.14829 134.58 7.2925 134.102 6.80238C133.877 6.59178 133.594 6.49414 133.31 6.49414C132.925 6.49414 132.536 6.67219 132.267 6.98617ZM49.645 18.3202C49.645 24.8755 54.8049 30.1443 61.0911 30.1443C67.4399 30.1443 72.539 24.8755 72.539 18.3202C72.539 11.7648 67.3792 6.49414 61.0911 6.49414C54.7461 6.49414 49.645 11.8261 49.645 18.3202ZM52.315 18.3202C52.315 13.2965 56.2271 9.25106 61.0911 9.25106C65.957 9.25106 69.9297 13.2965 69.8728 18.3202C69.8728 23.3458 65.957 27.3874 61.0911 27.3874C56.2271 27.3874 52.315 23.3458 52.315 18.3202ZM24.7353 15.0119V28.7965C24.7353 29.5317 25.3269 30.1443 26.0399 30.1443C26.7511 30.1443 27.3427 29.5317 27.3427 28.7352C27.3427 28.7352 27.2839 20.8321 27.3427 15.1344C27.4053 12.5 29.0057 9.19171 33.8091 9.19171C38.6143 9.19171 40.2148 12.6838 40.2148 15.0731V28.7352C40.2148 29.4685 40.8064 30.0831 41.5194 30.0831C42.2324 30.0831 42.8241 29.4685 42.8241 28.7352V14.8894C42.8241 10.4783 39.6231 6.49414 33.7503 6.49414C27.8812 6.49414 24.7353 10.417 24.7353 15.0119ZM0 7.90515V28.7965C0 29.5317 0.593541 30.1443 1.30655 30.1443C2.01576 30.1443 2.6112 29.5317 2.6112 28.7965V7.84388C2.6112 7.1087 2.01576 6.49414 1.30655 6.49414C0.593541 6.49414 0 7.1087 0 7.90515ZM89.3213 6.86364C88.7296 7.35568 88.6727 8.21147 89.1468 8.76286L97.3938 19.1779V28.7965C97.3938 29.5317 97.9816 30.1443 98.6946 30.1443C99.4076 30.1443 100.003 29.5317 100.003 28.7965V19.2392L108.246 8.76286C108.72 8.21147 108.601 7.2925 108.068 6.86364C107.533 6.37544 106.703 6.49414 106.229 7.04744L98.6946 16.666L91.1645 7.04744C90.899 6.70857 90.5254 6.53626 90.1537 6.53626C89.8579 6.53626 89.5602 6.64539 89.3213 6.86364Z" fill="#2C2543"/>
        <path id="Fill 7" fill-rule="evenodd" clip-rule="evenodd" d="M8.06506 18.749L6.94056 19.7905C6.58405 20.0969 6.17066 20.2806 5.75537 20.2806L15.6597 29.7155C16.1926 30.2056 17.0251 30.2056 17.4991 29.6542C17.9732 29.1028 17.9732 28.2451 17.4366 27.755L8.06885 18.749H8.06506Z" fill="url(#paint0_linear_224_36249)"/>
        <path id="Clip 11" fill-rule="evenodd" clip-rule="evenodd" d="M15.7183 6.98618L3.85693 18.3202C3.85693 18.3202 4.33101 18.8103 4.80698 19.3617C5.28295 19.9131 6.10973 19.9131 6.64449 19.423L17.4989 8.94666C18.0317 8.45654 18.0317 7.59691 17.5558 7.04744C17.3074 6.75452 16.9565 6.60327 16.6076 6.60327C16.2909 6.60327 15.9705 6.7258 15.7183 6.98618Z" fill="#FFC926"/>
        <path id="Clip 14" fill-rule="evenodd" clip-rule="evenodd" d="M58.6448 36.8508V44.9627L58.6486 45.1101C58.6998 46.9595 59.7542 47.7464 61.6467 47.7464H62.1739L62.2478 47.7445C62.5607 47.7043 62.7636 47.4305 62.7636 47.1548C62.7636 46.8581 62.5285 46.6226 62.1739 46.6226H61.6467H61.5177C60.3193 46.5919 59.8812 46.1669 59.8812 44.9627V40.8752H62.2914L62.3445 40.8732C62.5531 40.8426 62.7029 40.6186 62.7029 40.3448C62.7029 40.1074 62.5285 39.8107 62.2914 39.8107H59.8812V36.8508L59.8755 36.801C59.8376 36.5828 59.5608 36.3779 59.2327 36.3779C58.9407 36.3779 58.6448 36.5541 58.6448 36.8508ZM47.4112 36.8508V44.9627L47.4131 45.1101C47.4681 46.9595 48.5205 47.7464 50.4111 47.7464H50.9383L51.0142 47.7445C51.327 47.7043 51.5299 47.4305 51.5299 47.1548C51.5299 46.8581 51.2948 46.6226 50.9383 46.6226H50.4111H50.286C49.0875 46.5919 48.6476 46.1669 48.6476 44.9627V40.8752H51.0578L51.1109 40.8732C51.3195 40.8426 51.4693 40.6186 51.4693 40.3448C51.4693 40.1074 51.2948 39.8107 51.0578 39.8107H48.6476V36.8508L48.6438 36.801C48.6078 36.5828 48.329 36.3779 48.0009 36.3779C47.707 36.3779 47.4112 36.5541 47.4112 36.8508ZM79.7582 36.9714V47.331L79.762 47.3826C79.7923 47.6009 80.0199 47.8058 80.3461 47.8058C80.6988 47.8058 80.9927 47.5684 80.9927 47.331V36.9714L80.9889 36.9083C80.9472 36.6479 80.6722 36.4947 80.3461 36.4947C79.9896 36.4947 79.7582 36.6728 79.7582 36.9714ZM42.7672 36.9714V47.331L42.771 47.3826C42.8032 47.6009 43.027 47.8058 43.355 47.8058C43.7096 47.8058 44.0016 47.5684 44.0016 47.331V36.9714L43.9846 36.9083C43.9049 36.6479 43.6831 36.4947 43.355 36.4947C43.0023 36.4947 42.7672 36.6728 42.7672 36.9714ZM17.0098 36.9714V47.331L17.0117 47.3826C17.042 47.6009 17.2696 47.8058 17.5976 47.8058C17.9484 47.8058 18.2443 47.5684 18.2443 47.331V46.68L18.3713 46.8045C19.0578 47.4401 19.949 47.8058 20.8896 47.8058C23.0078 47.8058 24.7713 46.031 24.7713 43.7814C24.7713 41.5299 23.0078 39.7513 20.8896 39.7513C19.8315 39.7513 18.9497 40.1687 18.2443 40.8752V36.9714L18.2386 36.9197C18.2082 36.7015 17.9807 36.4947 17.5976 36.4947C17.2449 36.4947 17.0098 36.6728 17.0098 36.9714ZM18.2443 43.7814C18.2443 42.2364 19.42 40.9977 20.8896 40.9977C22.3611 40.9977 23.5368 42.2364 23.5368 43.7814C23.5368 45.3169 22.3611 46.5632 20.8896 46.5632C19.42 46.5632 18.2443 45.3169 18.2443 43.7814ZM37.8273 37.7985C37.8273 38.214 38.18 38.6275 38.6503 38.6275C39.1206 38.6275 39.4733 38.2733 39.4733 37.7985C39.4733 37.3869 39.1206 37.027 38.6503 37.027C38.18 37.027 37.8273 37.3869 37.8273 37.7985ZM106.576 39.6977H106.43C105.301 39.7456 104.852 40.3697 104.457 41.057V40.2261L104.454 40.1783C104.423 39.9581 104.2 39.7513 103.868 39.7513C103.517 39.7513 103.282 39.9294 103.282 40.2261V47.331V47.3826C103.316 47.6009 103.54 47.8058 103.868 47.8058C104.222 47.8058 104.518 47.5684 104.518 47.331V43.6015V43.4464C104.564 41.8248 105.379 40.9364 106.576 40.9364H107.222V40.8752L107.273 40.8732C107.49 40.8445 107.691 40.6148 107.691 40.2836C107.691 39.9906 107.457 39.6977 107.222 39.6977H106.576ZM111.631 41.1738V40.2836L111.627 40.2242C111.595 39.9658 111.371 39.8107 111.043 39.8107C110.691 39.8107 110.455 39.9906 110.455 40.2836V47.331L110.459 47.3826C110.488 47.6009 110.715 47.8058 111.043 47.8058C111.396 47.8058 111.692 47.5684 111.692 47.331V43.3066L111.694 43.163C111.76 41.7118 112.845 40.8752 113.926 40.8752C115.219 40.8752 116.277 42.0583 116.277 43.3066V47.331L116.285 47.3922C116.321 47.6545 116.594 47.8058 116.867 47.8058C117.159 47.8058 117.513 47.6296 117.513 47.331V43.3066L117.51 43.1726C117.443 41.281 115.943 39.7513 114.161 39.7513C112.868 39.7513 112.043 40.4616 111.631 41.1738ZM94.0468 40.699C94.0468 40.9977 94.2213 41.3519 94.519 41.3519C94.8129 41.3519 95.2832 40.8196 96.5196 40.8196C98.1618 40.8196 98.7534 41.1126 98.7534 42.3589V42.6538H97.811H97.6479C95.0898 42.6767 93.4002 43.23 93.4002 45.2613C93.4002 46.9768 94.519 47.7464 95.9886 47.7464C97.2819 47.7464 98.1618 47.038 98.871 46.2665V47.0936L98.8748 47.1567C98.9051 47.4171 99.1327 47.5684 99.4588 47.5684C99.8115 47.5684 100.047 47.331 100.047 47.0936V42.2996L100.041 42.177C99.9462 40.431 99.0492 39.7513 96.5746 39.7513C95.3439 39.7513 94.0468 40.2261 94.0468 40.699ZM94.6953 45.202C94.6953 43.7202 96.2825 43.5421 98.0461 43.5421H98.871L98.8103 44.7846L98.8084 44.867C98.7307 45.6864 97.481 46.7987 96.3413 46.7987C95.3989 46.7987 94.6953 46.3258 94.6953 45.202ZM64.7016 43.7814C64.7016 46.031 66.4064 47.8058 68.5852 47.8058C70.7015 47.8058 72.467 46.031 72.467 43.7814C72.467 41.5874 70.7622 39.7513 68.5852 39.7513C66.4671 39.7513 64.7016 41.5299 64.7016 43.7814ZM65.938 43.7814C65.938 42.2364 67.1137 40.9977 68.5852 40.9977C70.0549 40.9977 71.2306 42.2364 71.2306 43.7814C71.2894 45.3169 70.0549 46.5632 68.5852 46.5632C67.1137 46.5632 65.938 45.3169 65.938 43.7814ZM38.0624 40.2261V47.331L38.0681 47.3826C38.0966 47.6009 38.3241 47.8058 38.6503 47.8058C39.003 47.8058 39.2988 47.5684 39.2988 47.331V40.2261L39.2818 40.163C39.2021 39.9045 38.9727 39.7513 38.6503 39.7513C38.2976 39.7513 38.0624 39.9294 38.0624 40.2261ZM33.5929 40.2261V44.2543L33.5891 44.3653C33.5284 45.5658 32.4949 46.68 31.2434 46.68C29.9482 46.68 28.8863 45.4911 28.8863 44.2543V40.2261L28.8844 40.1783C28.8446 39.9581 28.5734 39.7513 28.3003 39.7513C27.9476 39.7513 27.6537 39.9906 27.6537 40.2261V44.2543L27.6556 44.3845C27.7257 46.2244 29.2864 47.8058 31.2434 47.8058C33.1814 47.8058 34.8274 46.1459 34.8274 44.2543V40.2261L34.8255 40.1783C34.7951 39.9581 34.5676 39.7513 34.2395 39.7513C33.8887 39.7513 33.5929 39.9906 33.5929 40.2261ZM87.6999 39.8107C85.7543 39.8107 84.1102 41.4112 84.1102 43.3066V44.2543C84.1102 46.4445 85.8131 47.8651 88.1664 47.8651C89.9318 47.8651 90.9919 47.0936 90.9919 46.6226C90.9919 46.3852 90.7548 46.031 90.4609 46.031C89.9887 46.031 89.6379 46.7987 88.1664 46.7987C86.5204 46.7987 85.2859 45.9085 85.2859 44.7846H89.6531C90.4495 44.7808 91.2251 44.6812 91.2251 43.2473C91.2251 41.2696 89.6436 39.8088 87.8023 39.8088C87.7682 39.8088 87.7321 39.8088 87.6999 39.8107ZM85.3447 43.1286C85.3447 41.8841 86.4028 40.8196 87.6999 40.8196C89.1088 40.8196 90.0513 41.9454 90.0513 43.1898C90.0513 43.7202 89.8712 43.8389 89.1088 43.8389H85.3447V43.1286Z" fill="#2C2543"/>
        <path id="Clip 17" fill-rule="evenodd" clip-rule="evenodd" d="M138.25 0.246974C137.882 0.36759 137.576 0.61265 137.332 0.857709C137.087 1.10277 136.843 1.40718 136.717 1.77477C136.535 2.14044 136.477 2.50612 136.477 2.87371C136.477 3.2413 136.535 3.66824 136.717 3.97265C136.843 4.34024 137.087 4.64465 137.332 4.89162C137.576 5.13477 137.882 5.37983 138.25 5.50236C138.616 5.62297 138.983 5.7455 139.351 5.7455C139.598 5.7455 139.839 5.68615 140.085 5.62297C140.33 5.56171 140.573 5.43918 140.758 5.31665C141.001 5.19412 141.187 5.01224 141.306 4.89162C141.494 4.70783 141.614 4.52212 141.735 4.27897C141.856 4.09518 141.982 3.85012 142.042 3.60697C142.103 3.36383 142.164 3.11877 142.164 2.87371C142.164 2.62865 142.103 2.3855 142.042 2.14044C141.982 1.8973 141.856 1.65415 141.735 1.46844C141.614 1.28465 141.43 1.03959 141.306 0.857709C141.124 0.673915 140.94 0.54947 140.758 0.428855C140.573 0.308239 140.33 0.187624 140.085 0.124444C139.839 0.0631795 139.598 0 139.351 0C138.983 0 138.616 0.0631795 138.25 0.246974ZM138.494 5.01224C138.189 4.89162 137.944 4.70783 137.76 4.52212C137.576 4.34024 137.394 4.09518 137.271 3.79077C137.15 3.48636 137.087 3.2413 137.087 2.87371C137.087 2.56738 137.15 2.26297 137.271 2.01791C137.394 1.71159 137.576 1.53162 137.76 1.28465C137.944 1.10277 138.189 0.918974 138.494 0.796444C138.8 0.673914 139.044 0.61265 139.41 0.61265C139.717 0.61265 140.025 0.673914 140.265 0.796444C140.573 0.918974 140.758 1.10277 141.001 1.28465C141.187 1.46844 141.369 1.71159 141.494 2.01791C141.614 2.32615 141.676 2.56738 141.676 2.87371C141.676 3.17812 141.614 3.48636 141.494 3.79077C141.369 4.09518 141.187 4.34024 141.001 4.52212C140.819 4.70783 140.573 4.89162 140.265 5.01224C140.025 5.13477 139.717 5.19412 139.41 5.19412C139.105 5.19412 138.8 5.13477 138.494 5.01224ZM138.003 1.34591V4.46085H138.616L138.678 3.2413H138.983C139.167 3.2413 139.351 3.30065 139.473 3.36383C139.598 3.48636 139.717 3.60697 139.778 3.79077L140.025 4.52212H140.698L140.33 3.66824C140.207 3.42318 140.085 3.2413 139.901 3.17812C140.33 3.0575 140.514 2.75118 140.514 2.26297C140.514 1.65415 140.085 1.34591 139.228 1.34591H138.003ZM138.678 1.8973H139.228C139.657 1.8973 139.901 2.01791 139.901 2.32615C139.901 2.56738 139.657 2.75118 139.228 2.75118H138.678V1.8973Z" fill="white"/>
    </g>
    <defs>
        <linearGradient id="paint0_linear_224_36249" x1="12.616" y1="21.2367" x2="11.6237" y2="18.0273" gradientUnits="userSpaceOnUse">
            <stop stop-color="#FCC728"/>
            <stop offset="1" stop-color="#CD9B2B"/>
        </linearGradient>
    </defs>
</svg>
